# Tiled2Unity generated file. Do not modify by hand.
# Wavefront file for 'ForestArea3_mesh_0005.obj'

# Vertices (Count = 16)
v -23 -17 0
v -24 -17 0
v -24 -16 0
v -23 -16 0
v -27 -14 0
v -28 -14 0
v -28 -13 0
v -27 -13 0
v -20 -7 0
v -21 -7 0
v -21 -6 0
v -20 -6 0
v -5 -7 0
v -6 -7 0
v -6 -6 0
v -5 -6 0

# Texture cooridinates (Count = 4)
vt 0 0
vt 1 0
vt 1 1
vt 0 1

# Normal
vn 0 0 -1

# Mesh description
g ForestArea3_mesh_0005

# Faces
f 1/1/1 2/2/1 3/3/1 4/4/1
f 5/1/1 6/2/1 7/3/1 8/4/1
f 9/1/1 10/2/1 11/3/1 12/4/1
f 13/1/1 14/2/1 15/3/1 16/4/1

