# Tiled2Unity generated file. Do not modify by hand.
# Wavefront file for 'ForestArea3_mesh_0006.obj'

# Vertices (Count = 124)
v -4 -17 0
v -5 -17 0
v -5 -16 0
v -4 -16 0
v -3 -17 0
v -4 -17 0
v -4 -16 0
v -3 -16 0
v -2 -17 0
v -3 -17 0
v -3 -16 0
v -2 -16 0
v -1 -17 0
v -2 -17 0
v -2 -16 0
v -1 -16 0
v 0 -17 0
v -1 -17 0
v -1 -16 0
v 0 -16 0
v -4 -16 0
v -5 -16 0
v -5 -15 0
v -4 -15 0
v -3 -16 0
v -4 -16 0
v -4 -15 0
v -3 -15 0
v -2 -16 0
v -3 -16 0
v -3 -15 0
v -2 -15 0
v -1 -16 0
v -2 -16 0
v -2 -15 0
v -1 -15 0
v -4 -15 0
v -5 -15 0
v -5 -14 0
v -4 -14 0
v -3 -15 0
v -4 -15 0
v -4 -14 0
v -3 -14 0
v -2 -15 0
v -3 -15 0
v -3 -14 0
v -2 -14 0
v -1 -15 0
v -2 -15 0
v -2 -14 0
v -1 -14 0
v -4 -14 0
v -5 -14 0
v -5 -13 0
v -4 -13 0
v -3 -14 0
v -4 -14 0
v -4 -13 0
v -3 -13 0
v -2 -14 0
v -3 -14 0
v -3 -13 0
v -2 -13 0
v -1 -14 0
v -2 -14 0
v -2 -13 0
v -1 -13 0
v -1 -13 0
v -2 -13 0
v -2 -12 0
v -1 -12 0
v 0 -13 0
v -1 -13 0
v -1 -12 0
v 0 -12 0
v -31 -11 0
v -32 -11 0
v -32 -10 0
v -31 -10 0
v -30 -11 0
v -31 -11 0
v -31 -10 0
v -30 -10 0
v -30 -10 0
v -31 -10 0
v -31 -9 0
v -30 -9 0
v -29 -10 0
v -30 -10 0
v -30 -9 0
v -29 -9 0
v -28 -10 0
v -29 -10 0
v -29 -9 0
v -28 -9 0
v -30 -9 0
v -31 -9 0
v -31 -8 0
v -30 -8 0
v -29 -9 0
v -30 -9 0
v -30 -8 0
v -29 -8 0
v -28 -9 0
v -29 -9 0
v -29 -8 0
v -28 -8 0
v -30 -8 0
v -31 -8 0
v -31 -7 0
v -30 -7 0
v -29 -8 0
v -30 -8 0
v -30 -7 0
v -29 -7 0
v -28 -8 0
v -29 -8 0
v -29 -7 0
v -28 -7 0
v -30 -7 0
v -31 -7 0
v -31 -6 0
v -30 -6 0

# Texture cooridinates (Count = 10)
vt 0 0.7777778
vt 0.1 0.7777778
vt 0.1 0.6666666
vt 0 0.6666666
vt 0.1 0.5555556
vt 0 0.5555556
vt 0.3 0
vt 0.4 0
vt 0.4 0.1111111
vt 0.3 0.1111111

# Normal
vn 0 0 -1

# Mesh description
g ForestArea3_mesh_0006

# Faces
f 1/1/1 2/2/1 3/3/1 4/4/1
f 5/3/1 6/5/1 7/6/1 8/4/1
f 9/3/1 10/5/1 11/6/1 12/4/1
f 13/3/1 14/5/1 15/6/1 16/4/1
f 17/5/1 18/3/1 19/4/1 20/6/1
f 21/4/1 22/3/1 23/5/1 24/6/1
f 25/7/1 26/8/1 27/9/1 28/10/1
f 29/7/1 30/8/1 31/9/1 32/10/1
f 33/7/1 34/8/1 35/9/1 36/10/1
f 37/4/1 38/3/1 39/5/1 40/6/1
f 41/7/1 42/8/1 43/9/1 44/10/1
f 45/7/1 46/8/1 47/9/1 48/10/1
f 49/7/1 50/8/1 51/9/1 52/10/1
f 53/4/1 54/3/1 55/2/1 56/1/1
f 57/6/1 58/4/1 59/3/1 60/5/1
f 61/6/1 62/4/1 63/3/1 64/5/1
f 65/7/1 66/8/1 67/9/1 68/10/1
f 69/4/1 70/3/1 71/2/1 72/1/1
f 73/6/1 74/4/1 75/3/1 76/5/1
f 77/3/1 78/5/1 79/6/1 80/4/1
f 81/2/1 82/1/1 83/4/1 84/3/1
f 85/7/1 86/8/1 87/9/1 88/10/1
f 89/3/1 90/5/1 91/6/1 92/4/1
f 93/2/1 94/1/1 95/4/1 96/3/1
f 97/7/1 98/8/1 99/9/1 100/10/1
f 101/7/1 102/8/1 103/9/1 104/10/1
f 105/5/1 106/6/1 107/4/1 108/3/1
f 109/7/1 110/8/1 111/9/1 112/10/1
f 113/6/1 114/4/1 115/3/1 116/5/1
f 117/1/1 118/4/1 119/3/1 120/2/1
f 121/1/1 122/4/1 123/3/1 124/2/1

