# Tiled2Unity generated file. Do not modify by hand.
# Wavefront file for 'SecondArea_mesh_0005.obj'

# Vertices (Count = 48)
v -29 -11 0
v -30 -11 0
v -30 -10 0
v -29 -10 0
v -28 -11 0
v -29 -11 0
v -29 -10 0
v -28 -10 0
v -29 -10 0
v -30 -10 0
v -30 -9 0
v -29 -9 0
v -28 -10 0
v -29 -10 0
v -29 -9 0
v -28 -9 0
v -25 -8 0
v -26 -8 0
v -26 -7 0
v -25 -7 0
v -24 -8 0
v -25 -8 0
v -25 -7 0
v -24 -7 0
v -25 -7 0
v -26 -7 0
v -26 -6 0
v -25 -6 0
v -24 -7 0
v -25 -7 0
v -25 -6 0
v -24 -6 0
v -30 -4 0
v -31 -4 0
v -31 -3 0
v -30 -3 0
v -29 -4 0
v -30 -4 0
v -30 -3 0
v -29 -3 0
v -30 -3 0
v -31 -3 0
v -31 -2 0
v -30 -2 0
v -29 -3 0
v -30 -3 0
v -30 -2 0
v -29 -2 0

# Texture cooridinates (Count = 9)
vt 0.9 0.6666666
vt 1 0.6666666
vt 1 0.7777778
vt 0.9 0.7777778
vt 0.8 0.6666666
vt 0.8 0.7777778
vt 1 0.8888889
vt 0.9 0.8888889
vt 0.8 0.8888889

# Normal
vn 0 0 -1

# Mesh description
g SecondArea_mesh_0005

# Faces
f 1/1/1 2/2/1 3/3/1 4/4/1
f 5/5/1 6/1/1 7/4/1 8/6/1
f 9/4/1 10/3/1 11/7/1 12/8/1
f 13/6/1 14/4/1 15/8/1 16/9/1
f 17/1/1 18/2/1 19/3/1 20/4/1
f 21/5/1 22/1/1 23/4/1 24/6/1
f 25/4/1 26/3/1 27/7/1 28/8/1
f 29/6/1 30/4/1 31/8/1 32/9/1
f 33/1/1 34/2/1 35/3/1 36/4/1
f 37/5/1 38/1/1 39/4/1 40/6/1
f 41/4/1 42/3/1 43/7/1 44/8/1
f 45/6/1 46/4/1 47/8/1 48/9/1

