# Tiled2Unity generated file. Do not modify by hand.
# Wavefront file for 'StartArea_mesh_0005.obj'

# Vertices (Count = 20)
v -22 -8 0
v -23 -8 0
v -23 -7 0
v -22 -7 0
v -25 -5 0
v -26 -5 0
v -26 -4 0
v -25 -4 0
v -28 -3 0
v -29 -3 0
v -29 -2 0
v -28 -2 0
v -27 -3 0
v -28 -3 0
v -28 -2 0
v -27 -2 0
v -26 -3 0
v -27 -3 0
v -27 -2 0
v -26 -2 0

# Texture cooridinates (Count = 4)
vt 0.4 0.7777778
vt 0.5 0.7777778
vt 0.5 0.8888889
vt 0.4 0.8888889

# Normal
vn 0 0 -1

# Mesh description
g StartArea_mesh_0005

# Faces
f 1/1/1 2/2/1 3/3/1 4/4/1
f 5/1/1 6/2/1 7/3/1 8/4/1
f 9/1/1 10/2/1 11/3/1 12/4/1
f 13/1/1 14/2/1 15/3/1 16/4/1
f 17/1/1 18/2/1 19/3/1 20/4/1

