# Tiled2Unity generated file. Do not modify by hand.
# Wavefront file for 'StartArea_mesh_0003.obj'

# Vertices (Count = 12)
v -31 -16 0
v -32 -16 0
v -32 -15 0
v -31 -15 0
v -31 -15 0
v -32 -15 0
v -32 -14 0
v -31 -14 0
v -31 -14 0
v -32 -14 0
v -32 -13 0
v -31 -13 0

# Texture cooridinates (Count = 4)
vt 0.3 0
vt 0.4 0
vt 0.4 0.1111111
vt 0.3 0.1111111

# Normal
vn 0 0 -1

# Mesh description
g StartArea_mesh_0003

# Faces
f 1/1/1 2/2/1 3/3/1 4/4/1
f 5/1/1 6/2/1 7/3/1 8/4/1
f 9/1/1 10/2/1 11/3/1 12/4/1

