# Tiled2Unity generated file. Do not modify by hand.
# Wavefront file for 'Lake_mesh_0004.obj'

# Vertices (Count = 168)
v -17 -19 0
v -18 -19 0
v -18 -18 0
v -17 -18 0
v -14 -19 0
v -15 -19 0
v -15 -18 0
v -14 -18 0
v -17 -18 0
v -18 -18 0
v -18 -17 0
v -17 -17 0
v -14 -18 0
v -15 -18 0
v -15 -17 0
v -14 -17 0
v -17 -17 0
v -18 -17 0
v -18 -16 0
v -17 -16 0
v -14 -17 0
v -15 -17 0
v -15 -16 0
v -14 -16 0
v -17 -16 0
v -18 -16 0
v -18 -15 0
v -17 -15 0
v -14 -16 0
v -15 -16 0
v -15 -15 0
v -14 -15 0
v -17 -15 0
v -18 -15 0
v -18 -14 0
v -17 -14 0
v -14 -15 0
v -15 -15 0
v -15 -14 0
v -14 -14 0
v -17 -14 0
v -18 -14 0
v -18 -13 0
v -17 -13 0
v -14 -14 0
v -15 -14 0
v -15 -13 0
v -14 -13 0
v -17 -13 0
v -18 -13 0
v -18 -12 0
v -17 -12 0
v -14 -13 0
v -15 -13 0
v -15 -12 0
v -14 -12 0
v -17 -12 0
v -18 -12 0
v -18 -11 0
v -17 -11 0
v -14 -12 0
v -15 -12 0
v -15 -11 0
v -14 -11 0
v -17 -11 0
v -18 -11 0
v -18 -10 0
v -17 -10 0
v -14 -11 0
v -15 -11 0
v -15 -10 0
v -14 -10 0
v -17 -10 0
v -18 -10 0
v -18 -9 0
v -17 -9 0
v -14 -10 0
v -15 -10 0
v -15 -9 0
v -14 -9 0
v -23 -9 0
v -24 -9 0
v -24 -8 0
v -23 -8 0
v -22 -9 0
v -23 -9 0
v -23 -8 0
v -22 -8 0
v -21 -9 0
v -22 -9 0
v -22 -8 0
v -21 -8 0
v -20 -9 0
v -21 -9 0
v -21 -8 0
v -20 -8 0
v -19 -9 0
v -20 -9 0
v -20 -8 0
v -19 -8 0
v -18 -9 0
v -19 -9 0
v -19 -8 0
v -18 -8 0
v -17 -9 0
v -18 -9 0
v -18 -8 0
v -17 -8 0
v -14 -9 0
v -15 -9 0
v -15 -8 0
v -14 -8 0
v -23 -8 0
v -24 -8 0
v -24 -7 0
v -23 -7 0
v -14 -8 0
v -15 -8 0
v -15 -7 0
v -14 -7 0
v -23 -7 0
v -24 -7 0
v -24 -6 0
v -23 -6 0
v -14 -7 0
v -15 -7 0
v -15 -6 0
v -14 -6 0
v -23 -6 0
v -24 -6 0
v -24 -5 0
v -23 -5 0
v -22 -6 0
v -23 -6 0
v -23 -5 0
v -22 -5 0
v -21 -6 0
v -22 -6 0
v -22 -5 0
v -21 -5 0
v -20 -6 0
v -21 -6 0
v -21 -5 0
v -20 -5 0
v -19 -6 0
v -20 -6 0
v -20 -5 0
v -19 -5 0
v -18 -6 0
v -19 -6 0
v -19 -5 0
v -18 -5 0
v -17 -6 0
v -18 -6 0
v -18 -5 0
v -17 -5 0
v -16 -6 0
v -17 -6 0
v -17 -5 0
v -16 -5 0
v -15 -6 0
v -16 -6 0
v -16 -5 0
v -15 -5 0
v -14 -6 0
v -15 -6 0
v -15 -5 0
v -14 -5 0

# Texture cooridinates (Count = 10)
vt 0.9 0.6666666
vt 0.9 0.5555556
vt 1 0.5555556
vt 1 0.6666666
vt 0.6 0.5555556
vt 0.7 0.5555556
vt 0.7 0.6666666
vt 0.6 0.6666666
vt 0.8 0.5555556
vt 0.8 0.6666666

# Normal
vn 0 0 -1

# Mesh description
g Lake_mesh_0004

# Faces
f 1/1/1 2/2/1 3/3/1 4/4/1
f 5/3/1 6/4/1 7/1/1 8/2/1
f 9/1/1 10/2/1 11/3/1 12/4/1
f 13/3/1 14/4/1 15/1/1 16/2/1
f 17/1/1 18/2/1 19/3/1 20/4/1
f 21/3/1 22/4/1 23/1/1 24/2/1
f 25/1/1 26/2/1 27/3/1 28/4/1
f 29/3/1 30/4/1 31/1/1 32/2/1
f 33/1/1 34/2/1 35/3/1 36/4/1
f 37/3/1 38/4/1 39/1/1 40/2/1
f 41/1/1 42/2/1 43/3/1 44/4/1
f 45/3/1 46/4/1 47/1/1 48/2/1
f 49/1/1 50/2/1 51/3/1 52/4/1
f 53/3/1 54/4/1 55/1/1 56/2/1
f 57/1/1 58/2/1 59/3/1 60/4/1
f 61/3/1 62/4/1 63/1/1 64/2/1
f 65/1/1 66/2/1 67/3/1 68/4/1
f 69/3/1 70/4/1 71/1/1 72/2/1
f 73/1/1 74/2/1 75/3/1 76/4/1
f 77/3/1 78/4/1 79/1/1 80/2/1
f 81/5/1 82/6/1 83/7/1 84/8/1
f 85/2/1 86/3/1 87/4/1 88/1/1
f 89/2/1 90/3/1 91/4/1 92/1/1
f 93/2/1 94/3/1 95/4/1 96/1/1
f 97/2/1 98/3/1 99/4/1 100/1/1
f 101/2/1 102/3/1 103/4/1 104/1/1
f 105/9/1 106/2/1 107/1/1 108/10/1
f 109/3/1 110/4/1 111/1/1 112/2/1
f 113/1/1 114/2/1 115/3/1 116/4/1
f 117/3/1 118/4/1 119/1/1 120/2/1
f 121/1/1 122/2/1 123/3/1 124/4/1
f 125/3/1 126/4/1 127/1/1 128/2/1
f 129/8/1 130/5/1 131/6/1 132/7/1
f 133/4/1 134/1/1 135/2/1 136/3/1
f 137/4/1 138/1/1 139/2/1 140/3/1
f 141/4/1 142/1/1 143/2/1 144/3/1
f 145/4/1 146/1/1 147/2/1 148/3/1
f 149/4/1 150/1/1 151/2/1 152/3/1
f 153/4/1 154/1/1 155/2/1 156/3/1
f 157/4/1 158/1/1 159/2/1 160/3/1
f 161/4/1 162/1/1 163/2/1 164/3/1
f 165/7/1 166/8/1 167/5/1 168/6/1

