# Tiled2Unity generated file. Do not modify by hand.
# Wavefront file for 'HousesArea_mesh_0002.obj'

# Vertices (Count = 12)
v -16 -19 0
v -17 -19 0
v -17 -18 0
v -16 -18 0
v -15 -19 0
v -16 -19 0
v -16 -18 0
v -15 -18 0
v -8 -12 0
v -9 -12 0
v -9 -11 0
v -8 -11 0

# Texture cooridinates (Count = 8)
vt 0.1 0.7777778
vt 0.2 0.7777778
vt 0.2 0.8888889
vt 0.1 0.8888889
vt 0.3 0.4444444
vt 0.4 0.4444444
vt 0.4 0.5555556
vt 0.3 0.5555556

# Normal
vn 0 0 -1

# Mesh description
g HousesArea_mesh_0002

# Faces
f 1/1/1 2/2/1 3/3/1 4/4/1
f 5/1/1 6/2/1 7/3/1 8/4/1
f 9/5/1 10/6/1 11/7/1 12/8/1

