# Tiled2Unity generated file. Do not modify by hand.
# Wavefront file for 'HousesArea_mesh_0004.obj'

# Vertices (Count = 32)
v -9 -12 0
v -10 -12 0
v -10 -11 0
v -9 -11 0
v -7 -12 0
v -8 -12 0
v -8 -11 0
v -7 -11 0
v -9 -11 0
v -10 -11 0
v -10 -10 0
v -9 -10 0
v -8 -11 0
v -9 -11 0
v -9 -10 0
v -8 -10 0
v -7 -11 0
v -8 -11 0
v -8 -10 0
v -7 -10 0
v -9 -10 0
v -10 -10 0
v -10 -9 0
v -9 -9 0
v -8 -10 0
v -9 -10 0
v -9 -9 0
v -8 -9 0
v -7 -10 0
v -8 -10 0
v -8 -9 0
v -7 -9 0

# Texture cooridinates (Count = 16)
vt 0.4 0.4444444
vt 0.5 0.4444444
vt 0.5 0.5555556
vt 0.4 0.5555556
vt 0.2 0.4444444
vt 0.3 0.4444444
vt 0.3 0.5555556
vt 0.2 0.5555556
vt 0.5 0.6666666
vt 0.4 0.6666666
vt 0.3 0.6666666
vt 0.2 0.6666666
vt 0.5 0.7777778
vt 0.4 0.7777778
vt 0.3 0.7777778
vt 0.2 0.7777778

# Normal
vn 0 0 -1

# Mesh description
g HousesArea_mesh_0004

# Faces
f 1/1/1 2/2/1 3/3/1 4/4/1
f 5/5/1 6/6/1 7/7/1 8/8/1
f 9/4/1 10/3/1 11/9/1 12/10/1
f 13/7/1 14/4/1 15/10/1 16/11/1
f 17/8/1 18/7/1 19/11/1 20/12/1
f 21/10/1 22/9/1 23/13/1 24/14/1
f 25/11/1 26/10/1 27/14/1 28/15/1
f 29/12/1 30/11/1 31/15/1 32/16/1

