# Tiled2Unity generated file. Do not modify by hand.
# Wavefront file for 'Village1_mesh_0009.obj'

# Vertices (Count = 24)
v -16 -7 0
v -17 -7 0
v -17 -6 0
v -16 -6 0
v -15 -7 0
v -16 -7 0
v -16 -6 0
v -15 -6 0
v -16 -6 0
v -17 -6 0
v -17 -5 0
v -16 -5 0
v -15 -6 0
v -16 -6 0
v -16 -5 0
v -15 -5 0
v -16 -5 0
v -17 -5 0
v -17 -4 0
v -16 -4 0
v -15 -5 0
v -16 -5 0
v -16 -4 0
v -15 -4 0

# Texture cooridinates (Count = 12)
vt 0.5 0.1428571
vt 1 0.1428571
vt 1 0.4285714
vt 0.5 0.4285714
vt 0 0.1428571
vt 0 0.4285714
vt 1 0.7142857
vt 0.5 0.7142857
vt 0 0.7142857
vt 1 1
vt 0.5 1
vt 0 1

# Normal
vn 0 0 -1

# Mesh description
g Village1_mesh_0009

# Faces
f 1/1/1 2/2/1 3/3/1 4/4/1
f 5/5/1 6/1/1 7/4/1 8/6/1
f 9/4/1 10/3/1 11/7/1 12/8/1
f 13/6/1 14/4/1 15/8/1 16/9/1
f 17/8/1 18/7/1 19/10/1 20/11/1
f 21/9/1 22/8/1 23/11/1 24/12/1

