# Tiled2Unity generated file. Do not modify by hand.
# Wavefront file for 'Village1_mesh_0006.obj'

# Vertices (Count = 472)
v -31 -19 0
v -32 -19 0
v -32 -18 0
v -31 -18 0
v -30 -19 0
v -31 -19 0
v -31 -18 0
v -30 -18 0
v -29 -19 0
v -30 -19 0
v -30 -18 0
v -29 -18 0
v -28 -19 0
v -29 -19 0
v -29 -18 0
v -28 -18 0
v -27 -19 0
v -28 -19 0
v -28 -18 0
v -27 -18 0
v -26 -19 0
v -27 -19 0
v -27 -18 0
v -26 -18 0
v -25 -19 0
v -26 -19 0
v -26 -18 0
v -25 -18 0
v -24 -19 0
v -25 -19 0
v -25 -18 0
v -24 -18 0
v -23 -19 0
v -24 -19 0
v -24 -18 0
v -23 -18 0
v -22 -19 0
v -23 -19 0
v -23 -18 0
v -22 -18 0
v -21 -19 0
v -22 -19 0
v -22 -18 0
v -21 -18 0
v -20 -19 0
v -21 -19 0
v -21 -18 0
v -20 -18 0
v -19 -19 0
v -20 -19 0
v -20 -18 0
v -19 -18 0
v -18 -19 0
v -19 -19 0
v -19 -18 0
v -18 -18 0
v -13 -19 0
v -14 -19 0
v -14 -18 0
v -13 -18 0
v -12 -19 0
v -13 -19 0
v -13 -18 0
v -12 -18 0
v -11 -19 0
v -12 -19 0
v -12 -18 0
v -11 -18 0
v -10 -19 0
v -11 -19 0
v -11 -18 0
v -10 -18 0
v -9 -19 0
v -10 -19 0
v -10 -18 0
v -9 -18 0
v -8 -19 0
v -9 -19 0
v -9 -18 0
v -8 -18 0
v -7 -19 0
v -8 -19 0
v -8 -18 0
v -7 -18 0
v -6 -19 0
v -7 -19 0
v -7 -18 0
v -6 -18 0
v -5 -19 0
v -6 -19 0
v -6 -18 0
v -5 -18 0
v -4 -19 0
v -5 -19 0
v -5 -18 0
v -4 -18 0
v -3 -19 0
v -4 -19 0
v -4 -18 0
v -3 -18 0
v -2 -19 0
v -3 -19 0
v -3 -18 0
v -2 -18 0
v -1 -19 0
v -2 -19 0
v -2 -18 0
v -1 -18 0
v 0 -19 0
v -1 -19 0
v -1 -18 0
v 0 -18 0
v -31 -18 0
v -32 -18 0
v -32 -17 0
v -31 -17 0
v -30 -18 0
v -31 -18 0
v -31 -17 0
v -30 -17 0
v -29 -18 0
v -30 -18 0
v -30 -17 0
v -29 -17 0
v -28 -18 0
v -29 -18 0
v -29 -17 0
v -28 -17 0
v -27 -18 0
v -28 -18 0
v -28 -17 0
v -27 -17 0
v -26 -18 0
v -27 -18 0
v -27 -17 0
v -26 -17 0
v -25 -18 0
v -26 -18 0
v -26 -17 0
v -25 -17 0
v -24 -18 0
v -25 -18 0
v -25 -17 0
v -24 -17 0
v -23 -18 0
v -24 -18 0
v -24 -17 0
v -23 -17 0
v -22 -18 0
v -23 -18 0
v -23 -17 0
v -22 -17 0
v -21 -18 0
v -22 -18 0
v -22 -17 0
v -21 -17 0
v -20 -18 0
v -21 -18 0
v -21 -17 0
v -20 -17 0
v -19 -18 0
v -20 -18 0
v -20 -17 0
v -19 -17 0
v -18 -18 0
v -19 -18 0
v -19 -17 0
v -18 -17 0
v -13 -18 0
v -14 -18 0
v -14 -17 0
v -13 -17 0
v -12 -18 0
v -13 -18 0
v -13 -17 0
v -12 -17 0
v -11 -18 0
v -12 -18 0
v -12 -17 0
v -11 -17 0
v -10 -18 0
v -11 -18 0
v -11 -17 0
v -10 -17 0
v -9 -18 0
v -10 -18 0
v -10 -17 0
v -9 -17 0
v -8 -18 0
v -9 -18 0
v -9 -17 0
v -8 -17 0
v -7 -18 0
v -8 -18 0
v -8 -17 0
v -7 -17 0
v -6 -18 0
v -7 -18 0
v -7 -17 0
v -6 -17 0
v -5 -18 0
v -6 -18 0
v -6 -17 0
v -5 -17 0
v -4 -18 0
v -5 -18 0
v -5 -17 0
v -4 -17 0
v -3 -18 0
v -4 -18 0
v -4 -17 0
v -3 -17 0
v -2 -18 0
v -3 -18 0
v -3 -17 0
v -2 -17 0
v -1 -18 0
v -2 -18 0
v -2 -17 0
v -1 -17 0
v 0 -18 0
v -1 -18 0
v -1 -17 0
v 0 -17 0
v -31 -17 0
v -32 -17 0
v -32 -16 0
v -31 -16 0
v 0 -17 0
v -1 -17 0
v -1 -16 0
v 0 -16 0
v -31 -16 0
v -32 -16 0
v -32 -15 0
v -31 -15 0
v 0 -16 0
v -1 -16 0
v -1 -15 0
v 0 -15 0
v -31 -15 0
v -32 -15 0
v -32 -14 0
v -31 -14 0
v 0 -15 0
v -1 -15 0
v -1 -14 0
v 0 -14 0
v -31 -14 0
v -32 -14 0
v -32 -13 0
v -31 -13 0
v 0 -14 0
v -1 -14 0
v -1 -13 0
v 0 -13 0
v -31 -13 0
v -32 -13 0
v -32 -12 0
v -31 -12 0
v 0 -13 0
v -1 -13 0
v -1 -12 0
v 0 -12 0
v -31 -12 0
v -32 -12 0
v -32 -11 0
v -31 -11 0
v 0 -12 0
v -1 -12 0
v -1 -11 0
v 0 -11 0
v -31 -11 0
v -32 -11 0
v -32 -10 0
v -31 -10 0
v 0 -11 0
v -1 -11 0
v -1 -10 0
v 0 -10 0
v -31 -10 0
v -32 -10 0
v -32 -9 0
v -31 -9 0
v 0 -10 0
v -1 -10 0
v -1 -9 0
v 0 -9 0
v -31 -9 0
v -32 -9 0
v -32 -8 0
v -31 -8 0
v 0 -9 0
v -1 -9 0
v -1 -8 0
v 0 -8 0
v -31 -8 0
v -32 -8 0
v -32 -7 0
v -31 -7 0
v 0 -8 0
v -1 -8 0
v -1 -7 0
v 0 -7 0
v -31 -7 0
v -32 -7 0
v -32 -6 0
v -31 -6 0
v 0 -7 0
v -1 -7 0
v -1 -6 0
v 0 -6 0
v -31 -6 0
v -32 -6 0
v -32 -5 0
v -31 -5 0
v 0 -6 0
v -1 -6 0
v -1 -5 0
v 0 -5 0
v -31 -5 0
v -32 -5 0
v -32 -4 0
v -31 -4 0
v 0 -5 0
v -1 -5 0
v -1 -4 0
v 0 -4 0
v -31 -4 0
v -32 -4 0
v -32 -3 0
v -31 -3 0
v 0 -4 0
v -1 -4 0
v -1 -3 0
v 0 -3 0
v -31 -3 0
v -32 -3 0
v -32 -2 0
v -31 -2 0
v 0 -3 0
v -1 -3 0
v -1 -2 0
v 0 -2 0
v -31 -2 0
v -32 -2 0
v -32 -1 0
v -31 -1 0
v 0 -2 0
v -1 -2 0
v -1 -1 0
v 0 -1 0
v -31 -1 0
v -32 -1 0
v -32 0 0
v -31 0 0
v -30 -1 0
v -31 -1 0
v -31 0 0
v -30 0 0
v -29 -1 0
v -30 -1 0
v -30 0 0
v -29 0 0
v -28 -1 0
v -29 -1 0
v -29 0 0
v -28 0 0
v -27 -1 0
v -28 -1 0
v -28 0 0
v -27 0 0
v -26 -1 0
v -27 -1 0
v -27 0 0
v -26 0 0
v -25 -1 0
v -26 -1 0
v -26 0 0
v -25 0 0
v -24 -1 0
v -25 -1 0
v -25 0 0
v -24 0 0
v -23 -1 0
v -24 -1 0
v -24 0 0
v -23 0 0
v -22 -1 0
v -23 -1 0
v -23 0 0
v -22 0 0
v -21 -1 0
v -22 -1 0
v -22 0 0
v -21 0 0
v -20 -1 0
v -21 -1 0
v -21 0 0
v -20 0 0
v -19 -1 0
v -20 -1 0
v -20 0 0
v -19 0 0
v -18 -1 0
v -19 -1 0
v -19 0 0
v -18 0 0
v -17 -1 0
v -18 -1 0
v -18 0 0
v -17 0 0
v -14 -1 0
v -15 -1 0
v -15 0 0
v -14 0 0
v -13 -1 0
v -14 -1 0
v -14 0 0
v -13 0 0
v -12 -1 0
v -13 -1 0
v -13 0 0
v -12 0 0
v -11 -1 0
v -12 -1 0
v -12 0 0
v -11 0 0
v -10 -1 0
v -11 -1 0
v -11 0 0
v -10 0 0
v -9 -1 0
v -10 -1 0
v -10 0 0
v -9 0 0
v -8 -1 0
v -9 -1 0
v -9 0 0
v -8 0 0
v -7 -1 0
v -8 -1 0
v -8 0 0
v -7 0 0
v -6 -1 0
v -7 -1 0
v -7 0 0
v -6 0 0
v -5 -1 0
v -6 -1 0
v -6 0 0
v -5 0 0
v -4 -1 0
v -5 -1 0
v -5 0 0
v -4 0 0
v -3 -1 0
v -4 -1 0
v -4 0 0
v -3 0 0
v -2 -1 0
v -3 -1 0
v -3 0 0
v -2 0 0
v -1 -1 0
v -2 -1 0
v -2 0 0
v -1 0 0
v 0 -1 0
v -1 -1 0
v -1 0 0
v 0 0 0

# Texture cooridinates (Count = 11)
vt 0.5 0.6666666
vt 0.6 0.6666666
vt 0.6 0.7777778
vt 0.5 0.7777778
vt 0.5 0.8888889
vt 0.6 0.8888889
vt 0.7 0.6666666
vt 0.7 0.7777778
vt 0.7 0.8888889
vt 0.7 0.5555556
vt 0.6 0.5555556

# Normal
vn 0 0 -1

# Mesh description
g Village1_mesh_0006

# Faces
f 1/1/1 2/2/1 3/3/1 4/4/1
f 5/3/1 6/4/1 7/5/1 8/6/1
f 9/4/1 10/3/1 11/6/1 12/5/1
f 13/3/1 14/4/1 15/5/1 16/6/1
f 17/4/1 18/3/1 19/6/1 20/5/1
f 21/3/1 22/4/1 23/5/1 24/6/1
f 25/4/1 26/3/1 27/6/1 28/5/1
f 29/3/1 30/4/1 31/5/1 32/6/1
f 33/4/1 34/3/1 35/6/1 36/5/1
f 37/3/1 38/4/1 39/5/1 40/6/1
f 41/4/1 42/3/1 43/6/1 44/5/1
f 45/3/1 46/4/1 47/5/1 48/6/1
f 49/4/1 50/3/1 51/6/1 52/5/1
f 53/7/1 54/2/1 55/3/1 56/8/1
f 57/2/1 58/7/1 59/8/1 60/3/1
f 61/3/1 62/4/1 63/5/1 64/6/1
f 65/4/1 66/3/1 67/6/1 68/5/1
f 69/3/1 70/4/1 71/5/1 72/6/1
f 73/4/1 74/3/1 75/6/1 76/5/1
f 77/3/1 78/4/1 79/5/1 80/6/1
f 81/4/1 82/3/1 83/6/1 84/5/1
f 85/3/1 86/4/1 87/5/1 88/6/1
f 89/4/1 90/3/1 91/6/1 92/5/1
f 93/3/1 94/4/1 95/5/1 96/6/1
f 97/4/1 98/3/1 99/6/1 100/5/1
f 101/3/1 102/4/1 103/5/1 104/6/1
f 105/4/1 106/3/1 107/6/1 108/5/1
f 109/1/1 110/2/1 111/3/1 112/4/1
f 113/3/1 114/4/1 115/5/1 116/6/1
f 117/8/1 118/3/1 119/6/1 120/9/1
f 121/3/1 122/8/1 123/9/1 124/6/1
f 125/8/1 126/3/1 127/6/1 128/9/1
f 129/3/1 130/8/1 131/9/1 132/6/1
f 133/8/1 134/3/1 135/6/1 136/9/1
f 137/3/1 138/8/1 139/9/1 140/6/1
f 141/8/1 142/3/1 143/6/1 144/9/1
f 145/3/1 146/8/1 147/9/1 148/6/1
f 149/8/1 150/3/1 151/6/1 152/9/1
f 153/3/1 154/8/1 155/9/1 156/6/1
f 157/8/1 158/3/1 159/6/1 160/9/1
f 161/3/1 162/8/1 163/9/1 164/6/1
f 165/8/1 166/3/1 167/6/1 168/9/1
f 169/3/1 170/8/1 171/9/1 172/6/1
f 173/8/1 174/3/1 175/6/1 176/9/1
f 177/3/1 178/8/1 179/9/1 180/6/1
f 181/8/1 182/3/1 183/6/1 184/9/1
f 185/3/1 186/8/1 187/9/1 188/6/1
f 189/8/1 190/3/1 191/6/1 192/9/1
f 193/3/1 194/8/1 195/9/1 196/6/1
f 197/8/1 198/3/1 199/6/1 200/9/1
f 201/3/1 202/8/1 203/9/1 204/6/1
f 205/8/1 206/3/1 207/6/1 208/9/1
f 209/3/1 210/8/1 211/9/1 212/6/1
f 213/8/1 214/3/1 215/6/1 216/9/1
f 217/3/1 218/8/1 219/9/1 220/6/1
f 221/4/1 222/3/1 223/6/1 224/5/1
f 225/8/1 226/3/1 227/2/1 228/7/1
f 229/2/1 230/7/1 231/8/1 232/3/1
f 233/8/1 234/3/1 235/2/1 236/7/1
f 237/2/1 238/7/1 239/8/1 240/3/1
f 241/8/1 242/3/1 243/2/1 244/7/1
f 245/2/1 246/7/1 247/8/1 248/3/1
f 249/8/1 250/3/1 251/2/1 252/7/1
f 253/2/1 254/7/1 255/8/1 256/3/1
f 257/7/1 258/2/1 259/3/1 260/8/1
f 261/2/1 262/7/1 263/8/1 264/3/1
f 265/7/1 266/2/1 267/3/1 268/8/1
f 269/2/1 270/7/1 271/8/1 272/3/1
f 273/7/1 274/2/1 275/3/1 276/8/1
f 277/2/1 278/7/1 279/8/1 280/3/1
f 281/7/1 282/2/1 283/3/1 284/8/1
f 285/2/1 286/7/1 287/8/1 288/3/1
f 289/7/1 290/2/1 291/3/1 292/8/1
f 293/2/1 294/7/1 295/8/1 296/3/1
f 297/7/1 298/2/1 299/3/1 300/8/1
f 301/2/1 302/7/1 303/8/1 304/3/1
f 305/7/1 306/2/1 307/3/1 308/8/1
f 309/2/1 310/7/1 311/8/1 312/3/1
f 313/7/1 314/2/1 315/3/1 316/8/1
f 317/2/1 318/7/1 319/8/1 320/3/1
f 321/7/1 322/2/1 323/3/1 324/8/1
f 325/2/1 326/7/1 327/8/1 328/3/1
f 329/7/1 330/2/1 331/3/1 332/8/1
f 333/2/1 334/7/1 335/8/1 336/3/1
f 337/7/1 338/2/1 339/3/1 340/8/1
f 341/2/1 342/7/1 343/8/1 344/3/1
f 345/7/1 346/2/1 347/3/1 348/8/1
f 349/2/1 350/7/1 351/8/1 352/3/1
f 353/6/1 354/5/1 355/4/1 356/3/1
f 357/8/1 358/7/1 359/2/1 360/3/1
f 361/8/1 362/7/1 363/2/1 364/3/1
f 365/8/1 366/7/1 367/2/1 368/3/1
f 369/8/1 370/7/1 371/2/1 372/3/1
f 373/8/1 374/7/1 375/2/1 376/3/1
f 377/8/1 378/7/1 379/2/1 380/3/1
f 381/8/1 382/7/1 383/2/1 384/3/1
f 385/8/1 386/7/1 387/2/1 388/3/1
f 389/8/1 390/7/1 391/2/1 392/3/1
f 393/8/1 394/7/1 395/2/1 396/3/1
f 397/8/1 398/7/1 399/2/1 400/3/1
f 401/8/1 402/7/1 403/2/1 404/3/1
f 405/8/1 406/7/1 407/2/1 408/3/1
f 409/10/1 410/11/1 411/2/1 412/7/1
f 413/11/1 414/10/1 415/7/1 416/2/1
f 417/8/1 418/7/1 419/2/1 420/3/1
f 421/8/1 422/7/1 423/2/1 424/3/1
f 425/8/1 426/7/1 427/2/1 428/3/1
f 429/8/1 430/7/1 431/2/1 432/3/1
f 433/8/1 434/7/1 435/2/1 436/3/1
f 437/8/1 438/7/1 439/2/1 440/3/1
f 441/8/1 442/7/1 443/2/1 444/3/1
f 445/8/1 446/7/1 447/2/1 448/3/1
f 449/8/1 450/7/1 451/2/1 452/3/1
f 453/8/1 454/7/1 455/2/1 456/3/1
f 457/8/1 458/7/1 459/2/1 460/3/1
f 461/8/1 462/7/1 463/2/1 464/3/1
f 465/8/1 466/7/1 467/2/1 468/3/1
f 469/3/1 470/6/1 471/5/1 472/4/1

