# Tiled2Unity generated file. Do not modify by hand.
# Wavefront file for 'Village1_mesh_0005.obj'

# Vertices (Count = 16)
v -16 -8 0
v -17 -8 0
v -17 -7 0
v -16 -7 0
v -15 -8 0
v -16 -8 0
v -16 -7 0
v -15 -7 0
v -17 -7 0
v -18 -7 0
v -18 -6 0
v -17 -6 0
v -14 -7 0
v -15 -7 0
v -15 -6 0
v -14 -6 0

# Texture cooridinates (Count = 8)
vt 0 0.3333333
vt 1 0.3333333
vt 1 0.6666666
vt 0 0.6666666
vt 0 0
vt 1 0
vt 1 1
vt 0 1

# Normal
vn 0 0 -1

# Mesh description
g Village1_mesh_0005

# Faces
f 1/1/1 2/2/1 3/3/1 4/4/1
f 5/1/1 6/2/1 7/3/1 8/4/1
f 9/5/1 10/6/1 11/2/1 12/1/1
f 13/4/1 14/3/1 15/7/1 16/8/1

