# Tiled2Unity generated file. Do not modify by hand.
# Wavefront file for 'House1Interior_mesh_0003.obj'

# Vertices (Count = 68)
v -11 -6 0
v -12 -6 0
v -12 -5 0
v -11 -5 0
v -10 -6 0
v -11 -6 0
v -11 -5 0
v -10 -5 0
v -9 -6 0
v -10 -6 0
v -10 -5 0
v -9 -5 0
v -8 -6 0
v -9 -6 0
v -9 -5 0
v -8 -5 0
v -11 -5 0
v -12 -5 0
v -12 -4 0
v -11 -4 0
v -10 -5 0
v -11 -5 0
v -11 -4 0
v -10 -4 0
v -9 -5 0
v -10 -5 0
v -10 -4 0
v -9 -4 0
v -8 -5 0
v -9 -5 0
v -9 -4 0
v -8 -4 0
v -4 -5 0
v -5 -5 0
v -5 -4 0
v -4 -4 0
v -3 -5 0
v -4 -5 0
v -4 -4 0
v -3 -4 0
v -2 -5 0
v -3 -5 0
v -3 -4 0
v -2 -4 0
v -4 -4 0
v -5 -4 0
v -5 -3 0
v -4 -3 0
v -3 -4 0
v -4 -4 0
v -4 -3 0
v -3 -3 0
v -2 -4 0
v -3 -4 0
v -3 -3 0
v -2 -3 0
v -4 -3 0
v -5 -3 0
v -5 -2 0
v -4 -2 0
v -3 -3 0
v -4 -3 0
v -4 -2 0
v -3 -2 0
v -2 -3 0
v -3 -3 0
v -3 -2 0
v -2 -2 0

# Texture cooridinates (Count = 24)
vt 0.7787611 0.4606742
vt 0.8495575 0.4606742
vt 0.8495575 0.5505618
vt 0.7787611 0.5505618
vt 0.7079646 0.4606742
vt 0.7079646 0.5505618
vt 0.6371682 0.4606742
vt 0.6371682 0.5505618
vt 0.5663717 0.4606742
vt 0.5663717 0.5505618
vt 0.8495575 0.6404494
vt 0.7787611 0.6404494
vt 0.7079646 0.6404494
vt 0.6371682 0.6404494
vt 0.5663717 0.6404494
vt 0.2831858 0.6404494
vt 0.3539823 0.6404494
vt 0.3539823 0.7303371
vt 0.2831858 0.7303371
vt 0.2123894 0.6404494
vt 0.2123894 0.7303371
vt 0.3539823 0.8202247
vt 0.2831858 0.8202247
vt 0.2123894 0.8202247

# Normal
vn 0 0 -1

# Mesh description
g House1Interior_mesh_0003

# Faces
f 1/1/1 2/2/1 3/3/1 4/4/1
f 5/5/1 6/1/1 7/4/1 8/6/1
f 9/7/1 10/5/1 11/6/1 12/8/1
f 13/9/1 14/7/1 15/8/1 16/10/1
f 17/4/1 18/3/1 19/11/1 20/12/1
f 21/6/1 22/4/1 23/12/1 24/13/1
f 25/8/1 26/6/1 27/13/1 28/14/1
f 29/10/1 30/8/1 31/14/1 32/15/1
f 33/16/1 34/17/1 35/18/1 36/19/1
f 37/20/1 38/16/1 39/19/1 40/21/1
f 41/17/1 42/16/1 43/19/1 44/18/1
f 45/19/1 46/18/1 47/22/1 48/23/1
f 49/21/1 50/19/1 51/23/1 52/24/1
f 53/18/1 54/19/1 55/23/1 56/22/1
f 57/19/1 58/18/1 59/22/1 60/23/1
f 61/21/1 62/19/1 63/23/1 64/24/1
f 65/18/1 66/19/1 67/23/1 68/22/1

