# Tiled2Unity generated file. Do not modify by hand.
# Wavefront file for 'ForestBoss2_mesh_0002.obj'

# Vertices (Count = 824)
v -22 -18 0
v -23 -18 0
v -23 -17 0
v -22 -17 0
v -21 -18 0
v -22 -18 0
v -22 -17 0
v -21 -17 0
v -22 -17 0
v -23 -17 0
v -23 -16 0
v -22 -16 0
v -21 -17 0
v -22 -17 0
v -22 -16 0
v -21 -16 0
v -20 -17 0
v -21 -17 0
v -21 -16 0
v -20 -16 0
v -19 -17 0
v -20 -17 0
v -20 -16 0
v -19 -16 0
v -18 -17 0
v -19 -17 0
v -19 -16 0
v -18 -16 0
v -17 -17 0
v -18 -17 0
v -18 -16 0
v -17 -16 0
v -16 -17 0
v -17 -17 0
v -17 -16 0
v -16 -16 0
v -15 -17 0
v -16 -17 0
v -16 -16 0
v -15 -16 0
v -14 -17 0
v -15 -17 0
v -15 -16 0
v -14 -16 0
v -13 -17 0
v -14 -17 0
v -14 -16 0
v -13 -16 0
v -12 -17 0
v -13 -17 0
v -13 -16 0
v -12 -16 0
v -11 -17 0
v -12 -17 0
v -12 -16 0
v -11 -16 0
v -3 -17 0
v -4 -17 0
v -4 -16 0
v -3 -16 0
v -2 -17 0
v -3 -17 0
v -3 -16 0
v -2 -16 0
v -1 -17 0
v -2 -17 0
v -2 -16 0
v -1 -16 0
v 0 -17 0
v -1 -17 0
v -1 -16 0
v 0 -16 0
v -25 -16 0
v -26 -16 0
v -26 -15 0
v -25 -15 0
v -24 -16 0
v -25 -16 0
v -25 -15 0
v -24 -15 0
v -23 -16 0
v -24 -16 0
v -24 -15 0
v -23 -15 0
v -22 -16 0
v -23 -16 0
v -23 -15 0
v -22 -15 0
v -21 -16 0
v -22 -16 0
v -22 -15 0
v -21 -15 0
v -20 -16 0
v -21 -16 0
v -21 -15 0
v -20 -15 0
v -19 -16 0
v -20 -16 0
v -20 -15 0
v -19 -15 0
v -18 -16 0
v -19 -16 0
v -19 -15 0
v -18 -15 0
v -17 -16 0
v -18 -16 0
v -18 -15 0
v -17 -15 0
v -16 -16 0
v -17 -16 0
v -17 -15 0
v -16 -15 0
v -15 -16 0
v -16 -16 0
v -16 -15 0
v -15 -15 0
v -14 -16 0
v -15 -16 0
v -15 -15 0
v -14 -15 0
v -13 -16 0
v -14 -16 0
v -14 -15 0
v -13 -15 0
v -12 -16 0
v -13 -16 0
v -13 -15 0
v -12 -15 0
v -11 -16 0
v -12 -16 0
v -12 -15 0
v -11 -15 0
v -4 -16 0
v -5 -16 0
v -5 -15 0
v -4 -15 0
v -3 -16 0
v -4 -16 0
v -4 -15 0
v -3 -15 0
v -2 -16 0
v -3 -16 0
v -3 -15 0
v -2 -15 0
v -1 -16 0
v -2 -16 0
v -2 -15 0
v -1 -15 0
v -25 -15 0
v -26 -15 0
v -26 -14 0
v -25 -14 0
v -24 -15 0
v -25 -15 0
v -25 -14 0
v -24 -14 0
v -23 -15 0
v -24 -15 0
v -24 -14 0
v -23 -14 0
v -22 -15 0
v -23 -15 0
v -23 -14 0
v -22 -14 0
v -21 -15 0
v -22 -15 0
v -22 -14 0
v -21 -14 0
v -20 -15 0
v -21 -15 0
v -21 -14 0
v -20 -14 0
v -19 -15 0
v -20 -15 0
v -20 -14 0
v -19 -14 0
v -18 -15 0
v -19 -15 0
v -19 -14 0
v -18 -14 0
v -17 -15 0
v -18 -15 0
v -18 -14 0
v -17 -14 0
v -16 -15 0
v -17 -15 0
v -17 -14 0
v -16 -14 0
v -15 -15 0
v -16 -15 0
v -16 -14 0
v -15 -14 0
v -14 -15 0
v -15 -15 0
v -15 -14 0
v -14 -14 0
v -13 -15 0
v -14 -15 0
v -14 -14 0
v -13 -14 0
v -12 -15 0
v -13 -15 0
v -13 -14 0
v -12 -14 0
v -11 -15 0
v -12 -15 0
v -12 -14 0
v -11 -14 0
v -10 -15 0
v -11 -15 0
v -11 -14 0
v -10 -14 0
v -4 -15 0
v -5 -15 0
v -5 -14 0
v -4 -14 0
v -3 -15 0
v -4 -15 0
v -4 -14 0
v -3 -14 0
v -2 -15 0
v -3 -15 0
v -3 -14 0
v -2 -14 0
v -1 -15 0
v -2 -15 0
v -2 -14 0
v -1 -14 0
v -26 -14 0
v -27 -14 0
v -27 -13 0
v -26 -13 0
v -25 -14 0
v -26 -14 0
v -26 -13 0
v -25 -13 0
v -24 -14 0
v -25 -14 0
v -25 -13 0
v -24 -13 0
v -23 -14 0
v -24 -14 0
v -24 -13 0
v -23 -13 0
v -22 -14 0
v -23 -14 0
v -23 -13 0
v -22 -13 0
v -21 -14 0
v -22 -14 0
v -22 -13 0
v -21 -13 0
v -20 -14 0
v -21 -14 0
v -21 -13 0
v -20 -13 0
v -19 -14 0
v -20 -14 0
v -20 -13 0
v -19 -13 0
v -18 -14 0
v -19 -14 0
v -19 -13 0
v -18 -13 0
v -17 -14 0
v -18 -14 0
v -18 -13 0
v -17 -13 0
v -16 -14 0
v -17 -14 0
v -17 -13 0
v -16 -13 0
v -15 -14 0
v -16 -14 0
v -16 -13 0
v -15 -13 0
v -14 -14 0
v -15 -14 0
v -15 -13 0
v -14 -13 0
v -13 -14 0
v -14 -14 0
v -14 -13 0
v -13 -13 0
v -12 -14 0
v -13 -14 0
v -13 -13 0
v -12 -13 0
v -11 -14 0
v -12 -14 0
v -12 -13 0
v -11 -13 0
v -10 -14 0
v -11 -14 0
v -11 -13 0
v -10 -13 0
v -3 -14 0
v -4 -14 0
v -4 -13 0
v -3 -13 0
v -2 -14 0
v -3 -14 0
v -3 -13 0
v -2 -13 0
v -1 -14 0
v -2 -14 0
v -2 -13 0
v -1 -13 0
v -26 -13 0
v -27 -13 0
v -27 -12 0
v -26 -12 0
v -25 -13 0
v -26 -13 0
v -26 -12 0
v -25 -12 0
v -24 -13 0
v -25 -13 0
v -25 -12 0
v -24 -12 0
v -23 -13 0
v -24 -13 0
v -24 -12 0
v -23 -12 0
v -22 -13 0
v -23 -13 0
v -23 -12 0
v -22 -12 0
v -21 -13 0
v -22 -13 0
v -22 -12 0
v -21 -12 0
v -20 -13 0
v -21 -13 0
v -21 -12 0
v -20 -12 0
v -19 -13 0
v -20 -13 0
v -20 -12 0
v -19 -12 0
v -18 -13 0
v -19 -13 0
v -19 -12 0
v -18 -12 0
v -17 -13 0
v -18 -13 0
v -18 -12 0
v -17 -12 0
v -16 -13 0
v -17 -13 0
v -17 -12 0
v -16 -12 0
v -15 -13 0
v -16 -13 0
v -16 -12 0
v -15 -12 0
v -14 -13 0
v -15 -13 0
v -15 -12 0
v -14 -12 0
v -13 -13 0
v -14 -13 0
v -14 -12 0
v -13 -12 0
v -12 -13 0
v -13 -13 0
v -13 -12 0
v -12 -12 0
v -11 -13 0
v -12 -13 0
v -12 -12 0
v -11 -12 0
v -10 -13 0
v -11 -13 0
v -11 -12 0
v -10 -12 0
v -2 -13 0
v -3 -13 0
v -3 -12 0
v -2 -12 0
v -1 -13 0
v -2 -13 0
v -2 -12 0
v -1 -12 0
v 0 -13 0
v -1 -13 0
v -1 -12 0
v 0 -12 0
v -23 -12 0
v -24 -12 0
v -24 -11 0
v -23 -11 0
v -22 -12 0
v -23 -12 0
v -23 -11 0
v -22 -11 0
v -21 -12 0
v -22 -12 0
v -22 -11 0
v -21 -11 0
v -20 -12 0
v -21 -12 0
v -21 -11 0
v -20 -11 0
v -19 -12 0
v -20 -12 0
v -20 -11 0
v -19 -11 0
v -18 -12 0
v -19 -12 0
v -19 -11 0
v -18 -11 0
v -17 -12 0
v -18 -12 0
v -18 -11 0
v -17 -11 0
v -16 -12 0
v -17 -12 0
v -17 -11 0
v -16 -11 0
v -15 -12 0
v -16 -12 0
v -16 -11 0
v -15 -11 0
v -14 -12 0
v -15 -12 0
v -15 -11 0
v -14 -11 0
v -13 -12 0
v -14 -12 0
v -14 -11 0
v -13 -11 0
v -12 -12 0
v -13 -12 0
v -13 -11 0
v -12 -11 0
v -11 -12 0
v -12 -12 0
v -12 -11 0
v -11 -11 0
v -10 -12 0
v -11 -12 0
v -11 -11 0
v -10 -11 0
v -9 -12 0
v -10 -12 0
v -10 -11 0
v -9 -11 0
v -8 -12 0
v -9 -12 0
v -9 -11 0
v -8 -11 0
v -20 -11 0
v -21 -11 0
v -21 -10 0
v -20 -10 0
v -19 -11 0
v -20 -11 0
v -20 -10 0
v -19 -10 0
v -18 -11 0
v -19 -11 0
v -19 -10 0
v -18 -10 0
v -17 -11 0
v -18 -11 0
v -18 -10 0
v -17 -10 0
v -16 -11 0
v -17 -11 0
v -17 -10 0
v -16 -10 0
v -15 -11 0
v -16 -11 0
v -16 -10 0
v -15 -10 0
v -14 -11 0
v -15 -11 0
v -15 -10 0
v -14 -10 0
v -13 -11 0
v -14 -11 0
v -14 -10 0
v -13 -10 0
v -12 -11 0
v -13 -11 0
v -13 -10 0
v -12 -10 0
v -11 -11 0
v -12 -11 0
v -12 -10 0
v -11 -10 0
v -10 -11 0
v -11 -11 0
v -11 -10 0
v -10 -10 0
v -9 -11 0
v -10 -11 0
v -10 -10 0
v -9 -10 0
v -8 -11 0
v -9 -11 0
v -9 -10 0
v -8 -10 0
v -7 -11 0
v -8 -11 0
v -8 -10 0
v -7 -10 0
v -21 -10 0
v -22 -10 0
v -22 -9 0
v -21 -9 0
v -20 -10 0
v -21 -10 0
v -21 -9 0
v -20 -9 0
v -19 -10 0
v -20 -10 0
v -20 -9 0
v -19 -9 0
v -18 -10 0
v -19 -10 0
v -19 -9 0
v -18 -9 0
v -17 -10 0
v -18 -10 0
v -18 -9 0
v -17 -9 0
v -16 -10 0
v -17 -10 0
v -17 -9 0
v -16 -9 0
v -15 -10 0
v -16 -10 0
v -16 -9 0
v -15 -9 0
v -14 -10 0
v -15 -10 0
v -15 -9 0
v -14 -9 0
v -13 -10 0
v -14 -10 0
v -14 -9 0
v -13 -9 0
v -12 -10 0
v -13 -10 0
v -13 -9 0
v -12 -9 0
v -11 -10 0
v -12 -10 0
v -12 -9 0
v -11 -9 0
v -10 -10 0
v -11 -10 0
v -11 -9 0
v -10 -9 0
v -9 -10 0
v -10 -10 0
v -10 -9 0
v -9 -9 0
v -8 -10 0
v -9 -10 0
v -9 -9 0
v -8 -9 0
v -7 -10 0
v -8 -10 0
v -8 -9 0
v -7 -9 0
v -6 -10 0
v -7 -10 0
v -7 -9 0
v -6 -9 0
v -21 -9 0
v -22 -9 0
v -22 -8 0
v -21 -8 0
v -20 -9 0
v -21 -9 0
v -21 -8 0
v -20 -8 0
v -19 -9 0
v -20 -9 0
v -20 -8 0
v -19 -8 0
v -18 -9 0
v -19 -9 0
v -19 -8 0
v -18 -8 0
v -17 -9 0
v -18 -9 0
v -18 -8 0
v -17 -8 0
v -16 -9 0
v -17 -9 0
v -17 -8 0
v -16 -8 0
v -15 -9 0
v -16 -9 0
v -16 -8 0
v -15 -8 0
v -14 -9 0
v -15 -9 0
v -15 -8 0
v -14 -8 0
v -13 -9 0
v -14 -9 0
v -14 -8 0
v -13 -8 0
v -12 -9 0
v -13 -9 0
v -13 -8 0
v -12 -8 0
v -11 -9 0
v -12 -9 0
v -12 -8 0
v -11 -8 0
v -10 -9 0
v -11 -9 0
v -11 -8 0
v -10 -8 0
v -9 -9 0
v -10 -9 0
v -10 -8 0
v -9 -8 0
v -8 -9 0
v -9 -9 0
v -9 -8 0
v -8 -8 0
v -7 -9 0
v -8 -9 0
v -8 -8 0
v -7 -8 0
v -6 -9 0
v -7 -9 0
v -7 -8 0
v -6 -8 0
v -20 -8 0
v -21 -8 0
v -21 -7 0
v -20 -7 0
v -19 -8 0
v -20 -8 0
v -20 -7 0
v -19 -7 0
v -18 -8 0
v -19 -8 0
v -19 -7 0
v -18 -7 0
v -17 -8 0
v -18 -8 0
v -18 -7 0
v -17 -7 0
v -16 -8 0
v -17 -8 0
v -17 -7 0
v -16 -7 0
v -15 -8 0
v -16 -8 0
v -16 -7 0
v -15 -7 0
v -14 -8 0
v -15 -8 0
v -15 -7 0
v -14 -7 0
v -13 -8 0
v -14 -8 0
v -14 -7 0
v -13 -7 0
v -12 -8 0
v -13 -8 0
v -13 -7 0
v -12 -7 0
v -11 -8 0
v -12 -8 0
v -12 -7 0
v -11 -7 0
v -10 -8 0
v -11 -8 0
v -11 -7 0
v -10 -7 0
v -9 -8 0
v -10 -8 0
v -10 -7 0
v -9 -7 0
v -8 -8 0
v -9 -8 0
v -9 -7 0
v -8 -7 0
v -7 -8 0
v -8 -8 0
v -8 -7 0
v -7 -7 0
v -20 -7 0
v -21 -7 0
v -21 -6 0
v -20 -6 0
v -19 -7 0
v -20 -7 0
v -20 -6 0
v -19 -6 0
v -18 -7 0
v -19 -7 0
v -19 -6 0
v -18 -6 0
v -17 -7 0
v -18 -7 0
v -18 -6 0
v -17 -6 0
v -16 -7 0
v -17 -7 0
v -17 -6 0
v -16 -6 0
v -15 -7 0
v -16 -7 0
v -16 -6 0
v -15 -6 0
v -14 -7 0
v -15 -7 0
v -15 -6 0
v -14 -6 0
v -13 -7 0
v -14 -7 0
v -14 -6 0
v -13 -6 0
v -12 -7 0
v -13 -7 0
v -13 -6 0
v -12 -6 0
v -11 -7 0
v -12 -7 0
v -12 -6 0
v -11 -6 0
v -10 -7 0
v -11 -7 0
v -11 -6 0
v -10 -6 0
v -9 -7 0
v -10 -7 0
v -10 -6 0
v -9 -6 0
v -8 -7 0
v -9 -7 0
v -9 -6 0
v -8 -6 0
v -20 -6 0
v -21 -6 0
v -21 -5 0
v -20 -5 0
v -19 -6 0
v -20 -6 0
v -20 -5 0
v -19 -5 0
v -18 -6 0
v -19 -6 0
v -19 -5 0
v -18 -5 0
v -17 -6 0
v -18 -6 0
v -18 -5 0
v -17 -5 0
v -16 -6 0
v -17 -6 0
v -17 -5 0
v -16 -5 0
v -15 -6 0
v -16 -6 0
v -16 -5 0
v -15 -5 0
v -14 -6 0
v -15 -6 0
v -15 -5 0
v -14 -5 0
v -13 -6 0
v -14 -6 0
v -14 -5 0
v -13 -5 0
v -12 -6 0
v -13 -6 0
v -13 -5 0
v -12 -5 0
v -11 -6 0
v -12 -6 0
v -12 -5 0
v -11 -5 0
v -10 -6 0
v -11 -6 0
v -11 -5 0
v -10 -5 0
v -9 -6 0
v -10 -6 0
v -10 -5 0
v -9 -5 0
v -18 -5 0
v -19 -5 0
v -19 -4 0
v -18 -4 0
v -17 -5 0
v -18 -5 0
v -18 -4 0
v -17 -4 0
v -16 -5 0
v -17 -5 0
v -17 -4 0
v -16 -4 0
v -15 -5 0
v -16 -5 0
v -16 -4 0
v -15 -4 0
v -14 -5 0
v -15 -5 0
v -15 -4 0
v -14 -4 0
v -13 -5 0
v -14 -5 0
v -14 -4 0
v -13 -4 0
v -12 -5 0
v -13 -5 0
v -13 -4 0
v -12 -4 0
v -11 -5 0
v -12 -5 0
v -12 -4 0
v -11 -4 0

# Texture cooridinates (Count = 10)
vt 0.1 0.6666666
vt 0.1 0.7777778
vt 0 0.7777778
vt 0 0.6666666
vt 0 0.5555556
vt 0.1 0.5555556
vt 0.3 0
vt 0.4 0
vt 0.4 0.1111111
vt 0.3 0.1111111

# Normal
vn 0 0 -1

# Mesh description
g ForestBoss2_mesh_0002

# Faces
f 1/1/1 2/2/1 3/3/1 4/4/1
f 5/2/1 6/3/1 7/4/1 8/1/1
f 9/5/1 10/6/1 11/1/1 12/4/1
f 13/7/1 14/8/1 15/9/1 16/10/1
f 17/6/1 18/1/1 19/4/1 20/5/1
f 21/6/1 22/1/1 23/4/1 24/5/1
f 25/6/1 26/1/1 27/4/1 28/5/1
f 29/6/1 30/1/1 31/4/1 32/5/1
f 33/6/1 34/1/1 35/4/1 36/5/1
f 37/6/1 38/1/1 39/4/1 40/5/1
f 41/6/1 42/1/1 43/4/1 44/5/1
f 45/6/1 46/1/1 47/4/1 48/5/1
f 49/6/1 50/1/1 51/4/1 52/5/1
f 53/2/1 54/3/1 55/4/1 56/1/1
f 57/1/1 58/2/1 59/3/1 60/4/1
f 61/6/1 62/1/1 63/4/1 64/5/1
f 65/6/1 66/1/1 67/4/1 68/5/1
f 69/6/1 70/1/1 71/4/1 72/5/1
f 73/1/1 74/2/1 75/3/1 76/4/1
f 77/6/1 78/1/1 79/4/1 80/5/1
f 81/6/1 82/1/1 83/4/1 84/5/1
f 85/7/1 86/8/1 87/9/1 88/10/1
f 89/7/1 90/8/1 91/9/1 92/10/1
f 93/7/1 94/8/1 95/9/1 96/10/1
f 97/7/1 98/8/1 99/9/1 100/10/1
f 101/7/1 102/8/1 103/9/1 104/10/1
f 105/7/1 106/8/1 107/9/1 108/10/1
f 109/7/1 110/8/1 111/9/1 112/10/1
f 113/7/1 114/8/1 115/9/1 116/10/1
f 117/7/1 118/8/1 119/9/1 120/10/1
f 121/7/1 122/8/1 123/9/1 124/10/1
f 125/7/1 126/8/1 127/9/1 128/10/1
f 129/1/1 130/4/1 131/5/1 132/6/1
f 133/1/1 134/2/1 135/3/1 136/4/1
f 137/7/1 138/8/1 139/9/1 140/10/1
f 141/7/1 142/8/1 143/9/1 144/10/1
f 145/7/1 146/8/1 147/9/1 148/10/1
f 149/5/1 150/6/1 151/1/1 152/4/1
f 153/7/1 154/8/1 155/9/1 156/10/1
f 157/7/1 158/8/1 159/9/1 160/10/1
f 161/7/1 162/8/1 163/9/1 164/10/1
f 165/7/1 166/8/1 167/9/1 168/10/1
f 169/7/1 170/8/1 171/9/1 172/10/1
f 173/7/1 174/8/1 175/9/1 176/10/1
f 177/7/1 178/8/1 179/9/1 180/10/1
f 181/7/1 182/8/1 183/9/1 184/10/1
f 185/7/1 186/8/1 187/9/1 188/10/1
f 189/7/1 190/8/1 191/9/1 192/10/1
f 193/7/1 194/8/1 195/9/1 196/10/1
f 197/7/1 198/8/1 199/9/1 200/10/1
f 201/7/1 202/8/1 203/9/1 204/10/1
f 205/7/1 206/8/1 207/9/1 208/10/1
f 209/2/1 210/3/1 211/4/1 212/1/1
f 213/4/1 214/1/1 215/2/1 216/3/1
f 217/7/1 218/8/1 219/9/1 220/10/1
f 221/7/1 222/8/1 223/9/1 224/10/1
f 225/7/1 226/8/1 227/9/1 228/10/1
f 229/1/1 230/2/1 231/3/1 232/4/1
f 233/7/1 234/8/1 235/9/1 236/10/1
f 237/7/1 238/8/1 239/9/1 240/10/1
f 241/7/1 242/8/1 243/9/1 244/10/1
f 245/7/1 246/8/1 247/9/1 248/10/1
f 249/7/1 250/8/1 251/9/1 252/10/1
f 253/7/1 254/8/1 255/9/1 256/10/1
f 257/7/1 258/8/1 259/9/1 260/10/1
f 261/7/1 262/8/1 263/9/1 264/10/1
f 265/7/1 266/8/1 267/9/1 268/10/1
f 269/7/1 270/8/1 271/9/1 272/10/1
f 273/7/1 274/8/1 275/9/1 276/10/1
f 277/7/1 278/8/1 279/9/1 280/10/1
f 281/7/1 282/8/1 283/9/1 284/10/1
f 285/7/1 286/8/1 287/9/1 288/10/1
f 289/7/1 290/8/1 291/9/1 292/10/1
f 293/1/1 294/4/1 295/5/1 296/6/1
f 297/4/1 298/1/1 299/2/1 300/3/1
f 301/7/1 302/8/1 303/9/1 304/10/1
f 305/7/1 306/8/1 307/9/1 308/10/1
f 309/4/1 310/1/1 311/2/1 312/3/1
f 313/4/1 314/5/1 315/6/1 316/1/1
f 317/4/1 318/5/1 319/6/1 320/1/1
f 321/7/1 322/8/1 323/9/1 324/10/1
f 325/7/1 326/8/1 327/9/1 328/10/1
f 329/7/1 330/8/1 331/9/1 332/10/1
f 333/7/1 334/8/1 335/9/1 336/10/1
f 337/7/1 338/8/1 339/9/1 340/10/1
f 341/7/1 342/8/1 343/9/1 344/10/1
f 345/7/1 346/8/1 347/9/1 348/10/1
f 349/7/1 350/8/1 351/9/1 352/10/1
f 353/7/1 354/8/1 355/9/1 356/10/1
f 357/7/1 358/8/1 359/9/1 360/10/1
f 361/7/1 362/8/1 363/9/1 364/10/1
f 365/7/1 366/8/1 367/9/1 368/10/1
f 369/7/1 370/8/1 371/9/1 372/10/1
f 373/1/1 374/4/1 375/5/1 376/6/1
f 377/4/1 378/1/1 379/2/1 380/3/1
f 381/4/1 382/5/1 383/6/1 384/1/1
f 385/4/1 386/5/1 387/6/1 388/1/1
f 389/4/1 390/1/1 391/2/1 392/3/1
f 393/4/1 394/5/1 395/6/1 396/1/1
f 397/4/1 398/5/1 399/6/1 400/1/1
f 401/7/1 402/8/1 403/9/1 404/10/1
f 405/7/1 406/8/1 407/9/1 408/10/1
f 409/7/1 410/8/1 411/9/1 412/10/1
f 413/7/1 414/8/1 415/9/1 416/10/1
f 417/7/1 418/8/1 419/9/1 420/10/1
f 421/7/1 422/8/1 423/9/1 424/10/1
f 425/7/1 426/8/1 427/9/1 428/10/1
f 429/7/1 430/8/1 431/9/1 432/10/1
f 433/7/1 434/8/1 435/9/1 436/10/1
f 437/7/1 438/8/1 439/9/1 440/10/1
f 441/7/1 442/8/1 443/9/1 444/10/1
f 445/6/1 446/1/1 447/4/1 448/5/1
f 449/2/1 450/3/1 451/4/1 452/1/1
f 453/4/1 454/1/1 455/2/1 456/3/1
f 457/7/1 458/8/1 459/9/1 460/10/1
f 461/7/1 462/8/1 463/9/1 464/10/1
f 465/7/1 466/8/1 467/9/1 468/10/1
f 469/7/1 470/8/1 471/9/1 472/10/1
f 473/7/1 474/8/1 475/9/1 476/10/1
f 477/7/1 478/8/1 479/9/1 480/10/1
f 481/7/1 482/8/1 483/9/1 484/10/1
f 485/7/1 486/8/1 487/9/1 488/10/1
f 489/7/1 490/8/1 491/9/1 492/10/1
f 493/7/1 494/8/1 495/9/1 496/10/1
f 497/7/1 498/8/1 499/9/1 500/10/1
f 501/7/1 502/8/1 503/9/1 504/10/1
f 505/2/1 506/3/1 507/4/1 508/1/1
f 509/1/1 510/2/1 511/3/1 512/4/1
f 513/6/1 514/1/1 515/4/1 516/5/1
f 517/7/1 518/8/1 519/9/1 520/10/1
f 521/7/1 522/8/1 523/9/1 524/10/1
f 525/7/1 526/8/1 527/9/1 528/10/1
f 529/7/1 530/8/1 531/9/1 532/10/1
f 533/7/1 534/8/1 535/9/1 536/10/1
f 537/7/1 538/8/1 539/9/1 540/10/1
f 541/7/1 542/8/1 543/9/1 544/10/1
f 545/7/1 546/8/1 547/9/1 548/10/1
f 549/7/1 550/8/1 551/9/1 552/10/1
f 553/7/1 554/8/1 555/9/1 556/10/1
f 557/7/1 558/8/1 559/9/1 560/10/1
f 561/7/1 562/8/1 563/9/1 564/10/1
f 565/7/1 566/8/1 567/9/1 568/10/1
f 569/2/1 570/3/1 571/4/1 572/1/1
f 573/4/1 574/1/1 575/2/1 576/3/1
f 577/7/1 578/8/1 579/9/1 580/10/1
f 581/7/1 582/8/1 583/9/1 584/10/1
f 585/7/1 586/8/1 587/9/1 588/10/1
f 589/7/1 590/8/1 591/9/1 592/10/1
f 593/7/1 594/8/1 595/9/1 596/10/1
f 597/7/1 598/8/1 599/9/1 600/10/1
f 601/7/1 602/8/1 603/9/1 604/10/1
f 605/7/1 606/8/1 607/9/1 608/10/1
f 609/7/1 610/8/1 611/9/1 612/10/1
f 613/7/1 614/8/1 615/9/1 616/10/1
f 617/7/1 618/8/1 619/9/1 620/10/1
f 621/7/1 622/8/1 623/9/1 624/10/1
f 625/7/1 626/8/1 627/9/1 628/10/1
f 629/7/1 630/8/1 631/9/1 632/10/1
f 633/3/1 634/4/1 635/1/1 636/2/1
f 637/5/1 638/6/1 639/1/1 640/4/1
f 641/7/1 642/8/1 643/9/1 644/10/1
f 645/7/1 646/8/1 647/9/1 648/10/1
f 649/7/1 650/8/1 651/9/1 652/10/1
f 653/7/1 654/8/1 655/9/1 656/10/1
f 657/7/1 658/8/1 659/9/1 660/10/1
f 661/7/1 662/8/1 663/9/1 664/10/1
f 665/7/1 666/8/1 667/9/1 668/10/1
f 669/7/1 670/8/1 671/9/1 672/10/1
f 673/7/1 674/8/1 675/9/1 676/10/1
f 677/7/1 678/8/1 679/9/1 680/10/1
f 681/7/1 682/8/1 683/9/1 684/10/1
f 685/7/1 686/8/1 687/9/1 688/10/1
f 689/3/1 690/4/1 691/1/1 692/2/1
f 693/5/1 694/6/1 695/1/1 696/4/1
f 697/7/1 698/8/1 699/9/1 700/10/1
f 701/7/1 702/8/1 703/9/1 704/10/1
f 705/7/1 706/8/1 707/9/1 708/10/1
f 709/7/1 710/8/1 711/9/1 712/10/1
f 713/7/1 714/8/1 715/9/1 716/10/1
f 717/7/1 718/8/1 719/9/1 720/10/1
f 721/7/1 722/8/1 723/9/1 724/10/1
f 725/7/1 726/8/1 727/9/1 728/10/1
f 729/7/1 730/8/1 731/9/1 732/10/1
f 733/7/1 734/8/1 735/9/1 736/10/1
f 737/7/1 738/8/1 739/9/1 740/10/1
f 741/3/1 742/4/1 743/1/1 744/2/1
f 745/4/1 746/1/1 747/2/1 748/3/1
f 749/4/1 750/5/1 751/6/1 752/1/1
f 753/7/1 754/8/1 755/9/1 756/10/1
f 757/7/1 758/8/1 759/9/1 760/10/1
f 761/7/1 762/8/1 763/9/1 764/10/1
f 765/7/1 766/8/1 767/9/1 768/10/1
f 769/7/1 770/8/1 771/9/1 772/10/1
f 773/7/1 774/8/1 775/9/1 776/10/1
f 777/7/1 778/8/1 779/9/1 780/10/1
f 781/7/1 782/8/1 783/9/1 784/10/1
f 785/4/1 786/5/1 787/6/1 788/1/1
f 789/3/1 790/4/1 791/1/1 792/2/1
f 793/4/1 794/1/1 795/2/1 796/3/1
f 797/4/1 798/5/1 799/6/1 800/1/1
f 801/4/1 802/5/1 803/6/1 804/1/1
f 805/4/1 806/5/1 807/6/1 808/1/1
f 809/4/1 810/5/1 811/6/1 812/1/1
f 813/4/1 814/5/1 815/6/1 816/1/1
f 817/4/1 818/5/1 819/6/1 820/1/1
f 821/3/1 822/4/1 823/1/1 824/2/1

